# xmcd CD database file
# Copyright (C) 1996 Ti Kan
#
# Track frame offsets:
#	150
#	1385
#	24492
#	42795
#	49676
#	71169
#	99629
#	116913
#	138829
#	159675
#	183150
#	215099
#	242224
#	263870
#	318971
# Disc length: 4460 seconds
#
# Revision: 1
# Processed by: cddbd v1.4PL0 Copyright (c) Steve Scherf et al.
# Submitted via: CDCOPY 4.900
#
DISCID=d4116a0f
DTITLE=ANUBIAN LIGHTS - Naz Bar
DYEAR=1900
DGENRE=
TTITLE0=Introduction
TTITLE1=What a Bagdad had
TTITLE2=Smoke and Mirrors
TTITLE3=In flight
TTITLE4=Out flight
TTITLE5=Epsilon
TTITLE6=Dreamstate in the Mainframe
TTITLE7=Micronite
TTITLE8=Hot Sand
TTITLE9=Starvox
TTITLE10=Lazytown
TTITLE11=The 3-Step Formula
TTITLE12=Smoothing Out of The Curve
TTITLE13=Outer Space Music
TTITLE14=Outer Space Music
EXTD=
EXTT0=
EXTT1=
EXTT2=
EXTT3=
EXTT4=
EXTT5=
EXTT6=
EXTT7=
EXTT8=
EXTT9=
EXTT10=
EXTT11=
EXTT12=
EXTT13=
EXTT14=
PLAYORDER=
